# xmcd
#
# Track frame offsets:
#	150
#	21974
#	36662
#	54743
#	67609
#	89113
#	100890
#	116661
#	128963
#	145947
#	166040
#	177486
#
# Disc length: 2733 seconds
#
# Revision: 0
# Processed by: cddbd v1.5.2PL0 Copyright (c) Steve Scherf et al.
# Submitted via: EasyCDDAExtractor 16.0.1.1
#
DISCID=ac0aab0c
DTITLE=Jerry Douglas and Peter Rowan - Yonder
DYEAR=1996
DGENRE=Bluegrass
TTITLE0=Wayside Tavern
TTITLE1=Cannonball Blues
TTITLE2=Lullaby Of The Leaves
TTITLE3=Tuck Away My Lonesome Blues
TTITLE4=Texas Rangers
TTITLE5=Can't Get There From Here
TTITLE6=Tribulations
TTITLE7=When You And I Were Young, M..
TTITLE8=Girl In The Blue Velvet Band
TTITLE9=Chicka-Li-Lee-O
TTITLE10=You Taught Me How To Lose
TTITLE11=Where Angels Weep
EXTD=
EXTT0=
EXTT1=
EXTT2=
EXTT3=
EXTT4=
EXTT5=
EXTT6=
EXTT7=
EXTT8=
EXTT9=
EXTT10=
EXTT11=
PLAYORDER=
